<svg width="48" height="49" viewBox="0 0 48 49" fill="none" xmlns="http://www.w3.org/2000/svg">
<path d="M0.0406455 22.1898C0.345122 16.5901 3.22815 11.3933 7.88279 6.99071C13.5706 1.61086 21.9187 -1.23188 29.5513 0.512671C37.1834 2.25722 43.5636 8.21208 46.4449 15.4919C49.2859 22.6716 48.3057 32.3619 42.9149 38.7185C42.9149 38.7185 47.341 47.4884 45.4578 48.5584C44.6687 49.3354 38.6591 45.4026 36.6797 43.4537L36.735 43.3996C30.2224 47.5719 21.2395 49.8057 11.7633 44.5196C4.6855 40.5712 -0.51478 32.3941 0.0406455 22.1898Z" fill="#F25C05"/>
<path d="M20.0898 14.1859C20.0898 14.1859 21.6859 25.9513 22.8816 26.656C24.0773 27.3603 26.6111 26.7053 26.7606 26.3422C26.9102 25.979 27.4603 13.2419 27.0009 13.2099C20.5474 12.7599 20.0898 14.1859 20.0898 14.1859Z" fill="#FEEFE6"/>
<path d="M27.8443 30.1405C28.5205 31.7625 27.7535 33.6254 26.1316 34.3017C24.5096 34.9779 22.6463 34.2109 21.9704 32.5889C21.2942 30.967 22.0612 29.1036 23.6831 28.4278C25.3051 27.7519 27.1681 28.5186 27.8443 30.1405Z" fill="#FEEFE6"/>
</svg>
