<svg width="14" height="14" viewBox="0 0 14 14" fill="none" xmlns="http://www.w3.org/2000/svg">
<path d="M5.98828 12.2499C6.09068 12.4272 6.23796 12.5745 6.41531 12.6769C6.59266 12.7793 6.79383 12.8332 6.99861 12.8332C7.2034 12.8332 7.40457 12.7793 7.58192 12.6769C7.75927 12.5745 7.90655 12.4272 8.00895 12.2499" stroke="#525866" stroke-width="1.16667" stroke-linecap="round" stroke-linejoin="round"/>
<path d="M1.90241 8.94C1.8262 9.02353 1.77591 9.12739 1.75766 9.23897C1.7394 9.35055 1.75396 9.46503 1.79957 9.56849C1.84518 9.67194 1.91987 9.75991 2.01456 9.8217C2.10924 9.88348 2.21984 9.91642 2.33291 9.9165H11.6662C11.7793 9.91654 11.8899 9.88373 11.9847 9.82207C12.0794 9.7604 12.1542 9.67252 12.1999 9.56914C12.2457 9.46575 12.2604 9.3513 12.2422 9.23971C12.2241 9.12812 12.174 9.0242 12.0979 8.94059C11.3221 8.14084 10.4996 7.29092 10.4996 4.6665C10.4996 3.73825 10.1308 2.84801 9.47445 2.19163C8.81807 1.53525 7.92783 1.1665 6.99957 1.1665C6.07132 1.1665 5.18108 1.53525 4.5247 2.19163C3.86832 2.84801 3.49957 3.73825 3.49957 4.6665C3.49957 7.29092 2.67649 8.14084 1.90241 8.94Z" stroke="#525866" stroke-width="1.16667" stroke-linecap="round" stroke-linejoin="round"/>
</svg>
