<svg width="20" height="17" viewBox="0 0 20 17" fill="none" xmlns="http://www.w3.org/2000/svg">
<path fill-rule="evenodd" clip-rule="evenodd" d="M2.4 2.4C1.07452 2.4 0 3.47452 0 4.8V14.4C0 15.7255 1.07452 16.8 2.4 16.8H16.8C18.1255 16.8 19.2 15.7255 19.2 14.4V4.8C19.2 3.47452 18.1255 2.4 16.8 2.4H14.8971C14.5788 2.4 14.2736 2.27357 14.0485 2.04853L12.7029 0.702944C12.2529 0.252857 11.6424 0 11.0059 0H8.19411C7.55759 0 6.94714 0.252856 6.49706 0.702943L5.15147 2.04853C4.92643 2.27357 4.6212 2.4 4.30294 2.4H2.4ZM9.6 13.2C11.5882 13.2 13.2 11.5882 13.2 9.6C13.2 7.61177 11.5882 6 9.6 6C7.61178 6 6 7.61177 6 9.6C6 11.5882 7.61178 13.2 9.6 13.2Z" fill="#FE8C00"/>
</svg>
