<svg width="200" height="200" viewBox="0 0 200 200" fill="none" xmlns="http://www.w3.org/2000/svg">
<path d="M101.664 76.1754V116.765C101.664 116.765 158.262 151.67 158.34 150.742C158.419 149.814 157.973 109.418 157.055 108.867C156.136 108.317 104.913 74.4807 101.664 76.1754Z" fill="#FBCCB2"/>
<path d="M65.5254 138.196C65.5254 138.196 99.2779 114.688 102.508 115.973C105.739 117.259 142.598 136.176 141.892 138.196C141.186 140.217 99.4947 164.432 98.9435 163.987C98.3928 163.542 65.5254 138.196 65.5254 138.196Z" fill="#FEEFE6"/>
<path d="M45.0195 150.926L45.754 108.867L101.663 143.212V184.169L45.0195 150.926Z" fill="#FEEFE6"/>
<path d="M157.054 108.867C157.054 108.867 158.891 148.355 158.34 150.742C157.789 153.13 103.759 185.821 101.663 184.168C99.5678 182.515 100.671 143.27 100.671 143.27L157.054 108.867Z" fill="#FEEFE6"/>
<path d="M45.7422 109.605C45.7549 108.867 100.821 75.0736 101.664 76.1755C102.507 77.2774 101.664 116.765 101.664 116.765C101.664 116.765 70.5407 133.079 70.6493 132.477C70.7842 131.731 45.7422 109.605 45.7422 109.605Z" fill="#FBCCB2"/>
<path d="M46.2542 109.174C46.2542 109.174 23.9971 83.986 23.5319 82.7873C23.0427 81.527 23.5319 80.7346 23.5319 80.7346C23.5319 80.7346 74.2226 51.9318 78.4469 52.2992C82.6712 52.6666 100.854 74.8899 100.67 76.5425L46.2542 109.174Z" fill="#FEEFE6"/>
<path d="M46.1914 109.578L46.0186 109.382C43.7365 106.8 23.7103 84.1171 23.2383 82.9017C22.6989 81.5115 23.2406 80.6078 23.2641 80.5698L23.3062 80.5015L23.3763 80.4617C25.4498 79.2833 74.2047 51.6032 78.4742 51.986C82.0744 52.2991 93.4236 66.0259 94.706 67.5898C96.2089 69.4234 101.103 75.4899 100.982 76.5773L100.965 76.732L100.831 76.8121L46.1914 109.578ZM23.7682 80.9622C23.6822 81.1527 23.4732 81.7668 23.8252 82.6736C24.2388 83.6099 37.4352 98.7159 46.3168 108.77L100.329 76.3795C99.5494 74.0441 82.5346 52.9702 78.4194 52.6123C75.1694 52.339 41.2943 71.0054 23.7682 80.9622Z" fill="#B64504"/>
<path d="M101.664 76.1755C101.664 76.1755 120.139 53.578 123.261 52.296C126.383 51.014 174.87 82.604 175.605 84.624C175.605 84.624 175.789 85.7259 175.605 87.0115C175.421 88.2971 157.606 108.867 157.055 108.867C156.504 108.867 101.664 76.1755 101.664 76.1755Z" fill="#FEEFE6"/>
<path d="M157.054 109.182C156.499 109.182 122.011 88.6713 101.503 76.4456L101.189 76.2587L101.42 75.9763C102.176 75.0509 119.982 53.3019 123.141 52.005C123.44 51.8824 124.049 51.8584 126.115 52.7716C136.739 57.4678 175.157 82.4731 175.9 84.5167C175.922 84.6194 176.104 85.7372 175.915 87.0563C175.792 87.9183 170.093 94.6753 166.706 98.6267C162.578 103.442 157.553 109.182 157.054 109.182ZM102.137 76.0922C120.466 87.0173 154.542 107.268 157.023 108.512C158.629 107.125 174.901 88.436 175.294 86.9576C175.447 85.8842 175.329 84.9267 175.3 84.7176C174.716 83.7302 163.861 76.1686 150.016 67.3966C132.982 56.6049 124.365 52.1792 123.38 52.5869C120.998 53.5648 108.581 68.2233 102.137 76.0922Z" fill="#B64504"/>
<path d="M101.664 143.212C101.664 143.212 120.506 144.681 122.342 143.212C124.179 141.743 173.951 112.357 174.503 111.255C175.054 110.153 174.87 108.683 173.217 108.867C171.564 109.051 157.055 108.867 157.055 108.867C157.055 108.867 101.739 141.559 101.664 143.212Z" fill="#FEEFE6"/>
<path d="M115.972 144.18C110.286 144.18 102.879 143.622 101.639 143.525L101.336 143.502L101.35 143.198C101.368 142.808 101.405 141.997 129.225 125.151C142.906 116.865 156.756 108.678 156.894 108.596L156.97 108.551L157.058 108.553C157.204 108.555 171.566 108.735 173.182 108.555C174.115 108.45 174.584 108.821 174.813 109.15C175.2 109.704 175.188 110.585 174.784 111.395C174.468 112.028 164.878 117.864 142.058 131.58C131.977 137.639 123.271 142.871 122.539 143.457C121.86 144.001 119.191 144.18 115.972 144.18ZM102.299 142.946C109.827 143.512 120.905 143.961 122.145 142.966C122.911 142.355 131.633 137.112 141.734 131.041C155.148 122.977 173.52 111.935 174.241 111.081C174.519 110.517 174.55 109.872 174.297 109.509C174.106 109.235 173.754 109.124 173.252 109.18C171.647 109.357 158.466 109.199 157.138 109.183C136.446 121.413 105.921 139.818 102.299 142.946Z" fill="#B64504"/>
<path d="M48.194 108.226C48.194 108.226 30.6928 108.652 29.2234 108.852C27.7541 109.051 27.5704 110.153 27.7541 111.071C27.9378 111.99 79.9142 143.416 81.5673 143.865C83.2203 144.314 101.662 143.212 101.662 143.212L48.194 108.226Z" fill="#FEEFE6"/>
<path d="M83.7158 144.283C82.5891 144.283 81.7845 144.249 81.4854 144.168C80.4749 143.894 64.463 134.297 53.9473 127.913C27.6039 111.921 27.4858 111.328 27.4464 111.133C27.345 110.628 27.3111 109.903 27.7252 109.323C28.0315 108.893 28.5216 108.63 29.1818 108.541C30.6516 108.341 47.4717 107.93 48.1872 107.911L48.2854 107.909L48.3673 107.963L102.63 143.47L101.681 143.526C101.06 143.563 88.9366 144.283 83.7158 144.283ZM28.051 110.942C29.762 112.598 79.7006 142.997 81.651 143.561C82.8913 143.9 95.027 143.282 100.694 142.954L48.1048 108.543C46.6925 108.577 30.6462 108.976 29.2664 109.163C28.7854 109.229 28.4392 109.405 28.2379 109.688C27.9709 110.063 27.984 110.564 28.051 110.942Z" fill="#B64504"/>
<path d="M28.3441 109.816C31.2488 111.37 34.0327 113.206 36.8565 114.899C42.86 118.499 48.8613 122.103 54.8627 125.707C60.9219 129.346 66.9807 132.985 73.0417 136.62C75.1437 137.881 77.2456 139.141 79.3494 140.399C80.2965 140.965 81.2599 141.695 82.274 142.137C82.7152 142.33 83.3062 142.204 83.7773 142.19C85.2901 142.143 86.8028 142.095 88.3156 142.048C91.4262 141.951 94.5373 141.854 97.6479 141.756C97.8538 141.75 98.0593 141.744 98.2652 141.737C98.7697 141.721 98.772 140.935 98.2652 140.951C95.8523 141.026 93.4395 141.102 91.0267 141.177C89.2736 141.232 87.5201 141.287 85.767 141.341C85.1041 141.362 84.4407 141.383 83.7777 141.403C83.447 141.414 82.9863 141.344 82.6673 141.438C82.4464 141.503 82.7971 141.583 82.6315 141.436C82.5279 141.343 82.365 141.279 82.2455 141.209C81.7319 140.905 81.2197 140.599 80.7074 140.294C78.8154 139.164 76.9257 138.032 75.0355 136.899C69.1722 133.383 63.3121 129.864 57.4515 126.344C51.3068 122.655 45.1624 118.964 39.0159 115.277C35.6713 113.271 32.3634 111.17 28.96 109.263C28.8862 109.222 28.8152 109.177 28.7405 109.137C28.2952 108.898 27.8975 109.576 28.3441 109.816Z" fill="#B64504"/>
<path d="M81.9225 143.864C82.1551 143.223 82.3877 142.581 82.6203 141.94C82.6905 141.746 82.5416 141.501 82.3456 141.457C82.1244 141.407 81.9375 141.524 81.8619 141.731C81.6293 142.373 81.3967 143.014 81.1641 143.655C81.094 143.849 81.2428 144.094 81.4388 144.139C81.6605 144.189 81.8474 144.071 81.9225 143.864Z" fill="#B64504"/>
<path d="M103.714 142.03C106.995 142.265 110.283 142.402 113.573 142.431C115.166 142.445 116.76 142.434 118.353 142.399C119.024 142.384 119.956 142.527 120.581 142.272C121.3 141.979 121.995 141.415 122.657 141.014C126.539 138.663 130.422 136.312 134.304 133.96C139.8 130.632 145.297 127.303 150.793 123.974C155.841 120.917 160.89 117.86 165.937 114.803C167.654 113.763 169.371 112.723 171.088 111.684C171.901 111.191 172.773 110.742 173.55 110.192C173.586 110.167 173.626 110.146 173.664 110.123C174.096 109.862 173.702 109.182 173.267 109.445C171.209 110.691 169.151 111.938 167.093 113.184C162.278 116.1 157.462 119.017 152.646 121.933C147.11 125.286 141.575 128.638 136.04 131.991C131.811 134.551 127.583 137.113 123.354 139.673C122.384 140.261 121.415 140.848 120.445 141.436C120.371 141.48 120.286 141.555 120.203 141.582C120.188 141.587 120.176 141.603 120.162 141.607C120.032 141.643 119.753 141.575 119.586 141.58C119.124 141.594 118.661 141.607 118.199 141.616C114.962 141.685 111.722 141.652 108.487 141.517C106.895 141.451 105.303 141.359 103.714 141.244C103.209 141.207 103.211 141.994 103.714 142.03Z" fill="#B64504"/>
<path d="M24.1083 80.6694C24.8793 81.7663 25.8274 82.7645 26.693 83.785C28.4972 85.9118 30.3118 88.0292 32.1283 90.1456C36.1928 94.8817 40.2682 99.6091 44.354 104.327C45.4246 105.563 46.479 106.817 47.5759 108.03C47.9158 108.406 48.4705 107.849 48.1316 107.474C45.3789 104.43 42.7448 101.271 40.0641 98.1642C36 93.4539 31.9373 88.7419 27.9067 84.0031C26.8985 82.8179 25.5939 81.4197 24.787 80.2721C24.4983 79.8616 23.8164 80.2544 24.1083 80.6694Z" fill="#B64504"/>
<path d="M155.313 107.834C161.605 100.013 168.211 92.4503 175.115 85.1652C175.463 84.7982 174.909 84.2412 174.56 84.6095C167.656 91.8951 161.049 99.4576 154.757 107.278C154.443 107.669 154.996 108.228 155.313 107.834Z" fill="#B64504"/>
<path d="M79.2512 128.756C86.8757 124.591 94.5002 120.426 102.125 116.261C102.569 116.019 102.173 115.34 101.728 115.583C94.1038 119.748 86.4788 123.913 78.8543 128.078C78.4104 128.32 78.8068 128.999 79.2512 128.756Z" fill="#B64504"/>
<path d="M101.727 116.262C109.241 120.113 116.552 124.344 124.066 128.195C124.515 128.426 124.914 127.748 124.463 127.516C116.949 123.665 109.638 119.434 102.124 115.583C101.675 115.352 101.277 116.031 101.727 116.262Z" fill="#B64504"/>
<path d="M102.202 116.21C102.671 105.824 102.569 95.4156 101.882 85.0416C101.687 82.0998 101.444 79.162 101.157 76.2279C101.109 75.7288 100.322 75.7238 100.371 76.2279C101.382 86.5748 101.824 96.975 101.68 107.371C101.638 110.318 101.549 113.265 101.416 116.21C101.393 116.716 102.179 116.715 102.202 116.21Z" fill="#B64504"/>
<path d="M102.231 184.571C102.23 173.729 102.125 162.887 102.079 152.045C102.066 149.101 102.058 146.157 102.058 143.213C102.058 142.707 101.271 142.706 101.271 143.213C101.272 154.055 101.377 164.897 101.424 175.739C101.436 178.683 101.445 181.627 101.445 184.571C101.445 185.077 102.231 185.077 102.231 184.571Z" fill="#B64504"/>
<path d="M120.231 142.11C120.454 142.683 120.804 143.201 121.28 143.594C121.362 143.662 121.447 143.709 121.558 143.709C121.654 143.709 121.769 143.666 121.835 143.594C121.968 143.449 122.005 143.177 121.835 143.038C121.739 142.958 121.646 142.873 121.559 142.783C121.517 142.739 121.476 142.694 121.437 142.647C121.416 142.623 121.395 142.598 121.375 142.573C121.367 142.562 121.334 142.52 121.372 142.57C121.415 142.626 121.37 142.567 121.364 142.559C121.214 142.357 121.089 142.139 120.99 141.908C121.003 141.939 121.016 141.97 121.029 142.002C121.015 141.969 121.002 141.936 120.989 141.903C120.951 141.804 120.903 141.723 120.809 141.668C120.724 141.618 120.6 141.598 120.506 141.628C120.32 141.687 120.152 141.905 120.231 142.11Z" fill="#B64504"/>
<path d="M60.4548 88.5152C65.1149 80.8151 69.3821 72.8833 73.2398 64.752C73.4557 64.2972 72.7778 63.8981 72.5611 64.3552C68.7033 72.4869 64.4361 80.4187 59.776 88.1183C59.5136 88.5523 60.1928 88.9478 60.4548 88.5152Z" fill="#B64504"/>
<path d="M66.5555 83.4872C67.6099 82.0047 68.6643 80.5218 69.7191 79.0394C69.8422 78.8665 69.7499 78.6022 69.5779 78.5018C69.3806 78.3864 69.1634 78.4692 69.0403 78.643C67.9859 80.1259 66.9316 81.6083 65.8768 83.0908C65.7537 83.2641 65.846 83.5284 66.0179 83.6284C66.2152 83.7438 66.4324 83.6605 66.5555 83.4872Z" fill="#B64504"/>
<path d="M47.8533 139.356C47.8533 139.356 47.4275 147.978 47.8533 149.091C48.2791 150.205 59.4116 156.823 59.7831 155.664C60.1542 154.505 60.5795 147.662 60.0229 146.549C59.4663 145.435 47.9067 138.147 47.8533 139.356Z" fill="#F25C05"/>
<path d="M94.6354 164.117C94.8128 163.929 95.1174 163.959 95.2581 164.175C96.0134 165.335 97.6239 168.282 97.0293 168.222C96.3161 168.151 95.9681 167.819 95.9681 167.819C95.9681 167.819 95.7835 173.526 95.6115 173.524C95.0925 173.516 94.0431 172.882 93.9001 172.383C93.7575 171.884 93.9001 166.893 93.9001 166.893C93.9001 166.893 92.8308 166.536 92.9018 166.179C92.9543 165.917 94.0576 164.726 94.6354 164.117Z" fill="#173E0F"/>
<path d="M89.9538 161.76C90.1312 161.573 90.4353 161.603 90.5765 161.818C91.3317 162.979 92.9422 165.925 92.3476 165.865C91.6344 165.794 91.2865 165.463 91.2865 165.463C91.2865 165.463 91.1018 171.169 90.9299 171.167C90.4108 171.159 89.361 170.525 89.2184 170.026C89.0759 169.527 89.2184 164.536 89.2184 164.536C89.2184 164.536 88.1491 164.179 88.2202 163.823C88.2727 163.56 89.3759 162.369 89.9538 161.76Z" fill="#173E0F"/>
<path d="M96.4477 175.433C96.4477 175.433 96.3282 177.002 96.1146 177.145C95.9006 177.287 88.1566 172.411 88.1566 172.411C87.8928 171.837 88.0336 171.2 88.1159 170.58C88.2014 170.095 96.0861 174.761 96.4477 175.433Z" fill="#173E0F"/>
<path d="M85.0573 164.905C85.1994 164.816 86.0787 160.211 82.5309 157.547C78.9832 154.883 77.6387 160.845 77.8541 161.226C78.0686 161.607 84.2509 165.413 85.0573 164.905Z" fill="#173E0F"/>
<path d="M82.5618 168.025C82.1862 168.468 81.6229 168.034 81.3446 167.691C81.0264 167.299 81.0088 166.813 81.0228 166.328C81.0604 165.042 81.2595 163.727 81.5848 162.482C81.7301 161.927 80.8708 161.69 80.7255 162.246C80.5142 163.054 80.3811 163.883 80.2739 164.711C80.1784 165.448 80.068 166.23 80.1495 166.973C80.2259 167.669 80.5459 168.247 81.0934 168.687C81.702 169.176 82.6415 169.303 83.1917 168.655C83.5605 168.22 82.9334 167.586 82.5618 168.025Z" fill="#173E0F"/>
<path d="M130.539 73.126C131.634 77.1665 133.374 81.0097 135.694 84.4946C135.973 84.9136 136.654 84.5204 136.372 84.0977C134.088 80.6654 132.375 76.8968 131.297 72.9169C131.165 72.4295 130.406 72.6363 130.539 73.126Z" fill="#B64504"/>
<path d="M95.6153 139.124C102.499 134.866 109.439 130.698 116.373 126.521C117.059 126.107 117.746 125.694 118.433 125.281C118.866 125.02 118.471 124.34 118.036 124.602C112.319 128.04 106.607 131.489 100.91 134.958C99.0096 136.115 97.1109 137.275 95.2189 138.445C94.789 138.711 95.1831 139.392 95.6153 139.124Z" fill="#B64504"/>
<path d="M76.6465 118.08C80.1806 113.056 83.3546 107.791 86.1458 102.319C86.3752 101.869 85.6973 101.471 85.467 101.922C82.6758 107.394 79.5019 112.659 75.9677 117.683C75.6758 118.098 76.3569 118.491 76.6465 118.08Z" fill="#B64504"/>
<path d="M23.8288 41.853C24.0682 37.4504 26.3349 33.3646 29.9944 29.9033C34.4662 25.6736 41.0296 23.4386 47.0304 24.8102C53.0308 26.1818 58.047 30.8635 60.3123 36.587C62.5459 42.2317 61.7753 49.8503 57.537 54.848C57.537 54.848 61.0169 61.743 59.5362 62.5842C58.9158 63.1951 54.1911 60.1031 52.6349 58.5708L52.6783 58.5283C47.558 61.8086 40.4956 63.5648 33.0453 59.4089C27.4807 56.3046 23.3921 49.8757 23.8288 41.853Z" fill="#F25C05"/>
<path d="M37.7129 31.0268C37.7129 31.0268 39.7176 45.8048 41.2195 46.6899C42.7214 47.5746 45.9039 46.7519 46.0917 46.2957C46.2795 45.8396 46.9705 29.8412 46.3936 29.801C38.2876 29.2358 37.7129 31.0268 37.7129 31.0268Z" fill="#FEEFE6"/>
<path d="M47.4503 51.0671C48.2997 53.1043 47.3362 55.4443 45.299 56.2937C43.2618 57.143 40.9213 56.1796 40.0724 54.1424C39.223 52.1051 40.1864 49.7647 42.2237 48.9158C44.2609 48.0669 46.6009 49.0298 47.4503 51.0671Z" fill="#FEEFE6"/>
<path d="M79.4407 41.2147C77.7112 37.929 76.7713 34.307 76.6813 30.595C76.4858 30.7072 76.2907 30.819 76.0952 30.9312C80.539 33.0065 84.9823 35.0817 89.4256 37.157C89.5975 37.2371 89.8695 37.2244 89.9582 37.0172C93.0204 29.8732 96.0826 22.7289 99.1443 15.5849C98.9072 15.5537 98.6701 15.5229 98.4325 15.4917C100.686 22.9886 102.94 30.486 105.193 37.9828C105.271 38.2426 105.535 38.32 105.765 38.2154C112.689 35.0713 119.327 31.3304 125.603 27.0355C125.412 26.8889 125.221 26.7423 125.031 26.5956C123.611 32.0802 122.19 37.5652 120.77 43.0497C120.69 43.3601 120.962 43.5746 121.249 43.5285C123.301 43.1995 125.231 42.6551 127.151 41.8704C129.07 41.0858 131.001 40.5409 133.052 40.2124C133.546 40.1332 133.336 39.3829 132.845 39.4617C130.794 39.7907 128.864 40.335 126.944 41.1197C125.024 41.9044 123.094 42.4492 121.043 42.7777C121.202 42.9375 121.362 43.0972 121.522 43.257C122.942 37.7724 124.362 32.2874 125.782 26.8029C125.862 26.4938 125.501 26.1639 125.21 26.3631C118.935 30.6579 112.297 34.3989 105.373 37.543C105.563 37.6204 105.754 37.6982 105.945 37.7756C103.691 30.2787 101.438 22.7814 99.1841 15.2845C99.0973 14.9958 98.6122 14.8654 98.4723 15.1912C95.4101 22.3356 92.3479 29.4796 89.2862 36.6235C89.4636 36.5769 89.6414 36.5303 89.8188 36.4837C85.3755 34.4084 80.9318 32.3331 76.4885 30.2579C76.2337 30.1389 75.8948 30.2764 75.9025 30.5941C75.9961 34.4446 76.9745 38.1987 78.7683 41.6071C79.0018 42.0514 79.6742 41.6587 79.4407 41.2147Z" fill="#173E0F"/>
<path d="M136.452 38.4272C136.334 38.4059 136.215 38.3846 136.097 38.3634C136.045 38.3471 135.993 38.3448 135.942 38.3566C135.89 38.3588 135.842 38.3742 135.797 38.4027C135.751 38.4272 135.715 38.4607 135.687 38.5032C135.653 38.5408 135.63 38.5851 135.618 38.6358C135.613 38.6702 135.608 38.7046 135.604 38.7394C135.604 38.8096 135.622 38.8752 135.656 38.9358C135.677 38.9621 135.697 38.9883 135.717 39.0145C135.766 39.063 135.823 39.096 135.889 39.1146C136.008 39.1358 136.126 39.1571 136.245 39.1784C136.296 39.1947 136.348 39.1969 136.4 39.1851C136.452 39.1829 136.5 39.1675 136.545 39.139C136.59 39.1146 136.627 39.0811 136.654 39.0385C136.688 39.001 136.711 38.9566 136.724 38.9059C136.728 38.8715 136.733 38.8372 136.738 38.8023C136.738 38.7322 136.719 38.6666 136.685 38.6059C136.664 38.5797 136.644 38.5534 136.623 38.5272C136.576 38.4792 136.519 38.4457 136.452 38.4272Z" fill="#173E0F"/>
</svg>
