<svg width="14" height="14" viewBox="0 0 14 14" fill="none" xmlns="http://www.w3.org/2000/svg">
<path d="M13.2034 9.55309C13.1814 10.5206 12.808 11.4471 12.153 12.1595C11.4979 12.8719 10.6059 13.3216 9.64361 13.4245L5.11946 13.9003C4.17328 13.9987 3.22317 13.7549 2.44121 13.2132C1.65925 12.6714 1.09716 11.8676 0.856737 10.9472C0.908377 10.9543 0.957278 10.9681 1.01026 10.9716C1.84055 11.0255 2.64015 11.3061 3.32207 11.7828C3.79238 12.1162 4.368 12.2668 4.9413 12.2065C5.5146 12.1462 6.0463 11.8791 6.43695 11.4552C7.18483 10.6538 8.19693 10.1494 9.28709 10.0348L12.6802 9.67788C12.859 9.65727 13.0346 9.61538 13.2034 9.55309ZM0.00644423 8.77753C0.0329947 9.05252 0.155565 9.30938 0.352637 9.503C0.549709 9.69662 0.808687 9.81463 1.08411 9.83632C2.12176 9.90403 3.12098 10.255 3.97309 10.851C4.21979 11.0255 4.52153 11.1042 4.82204 11.0726C5.12255 11.041 5.40131 10.9012 5.60631 10.6792C6.54095 9.67765 7.80575 9.04719 9.16812 8.90372L12.5612 8.54684C12.8612 8.51529 13.1364 8.36586 13.3262 8.13144C13.516 7.89702 13.6049 7.59681 13.5733 7.29684C13.5418 6.99687 13.3923 6.72172 13.1579 6.53191C12.9235 6.34211 12.6233 6.25321 12.3233 6.28476L1.06609 7.46878C0.752021 7.50181 0.463938 7.65826 0.265216 7.9037C0.0664937 8.14913 -0.0265891 8.46346 0.00644423 8.77753ZM12.7695 5.09085L12.7783 5.17454C12.5887 5.14328 12.3958 5.13628 12.2044 5.15372L0.947128 6.33774C0.73784 6.36287 0.533017 6.41674 0.338443 6.49782L0.328093 6.39942C0.17204 4.8999 0.617192 3.39971 1.56588 2.22801C2.51457 1.0563 3.88931 0.308765 5.38848 0.14942L6.51952 0.0304583C8.01904 -0.125594 9.51922 0.319557 10.6909 1.26824C11.8626 2.21693 12.6102 3.59167 12.7695 5.09085ZM3.54277 4.34598C3.52699 4.19599 3.45228 4.05842 3.33507 3.96352C3.21786 3.86862 3.06775 3.82416 2.91777 3.83994C2.76778 3.85571 2.63021 3.93042 2.53531 4.04764C2.44041 4.16485 2.39595 4.31495 2.41173 4.46494C2.4275 4.61492 2.50221 4.7525 2.61942 4.8474C2.73663 4.9423 2.88674 4.98675 3.03673 4.97098C3.18671 4.9552 3.32429 4.88049 3.41919 4.76328C3.51409 4.64607 3.55854 4.49596 3.54277 4.34598ZM5.06088 2.47098C5.04511 2.32099 4.9704 2.18342 4.85319 2.08852C4.73598 1.99362 4.58587 1.94916 4.43588 1.96494C4.2859 1.98071 4.14832 2.05542 4.05342 2.17263C3.95852 2.28985 3.91407 2.43995 3.92984 2.58994C3.94562 2.73992 4.02033 2.8775 4.13754 2.9724C4.25475 3.0673 4.40486 3.11175 4.55484 3.09598C4.70483 3.0802 4.8424 3.00549 4.93731 2.88828C5.03221 2.77107 5.07666 2.62096 5.06088 2.47098Z" fill="#F25C05"/>
</svg>
