<svg width="20" height="20" viewBox="0 0 20 20" fill="none" xmlns="http://www.w3.org/2000/svg">
<path d="M10.3125 3.125C10.3125 2.87636 10.4113 2.6379 10.5871 2.46209C10.7629 2.28627 11.0014 2.1875 11.25 2.1875H16.25C16.4986 2.1875 16.7371 2.28627 16.9129 2.46209C17.0887 2.6379 17.1875 2.87636 17.1875 3.125L17.1875 16.875C17.1875 17.1236 17.0887 17.3621 16.9129 17.5379C16.7371 17.7137 16.4986 17.8125 16.25 17.8125H11.25C11.0014 17.8125 10.7629 17.7137 10.5871 17.5379C10.4113 17.3621 10.3125 17.1236 10.3125 16.875C10.3125 16.6264 10.4113 16.3879 10.5871 16.2121C10.7629 16.0363 11.0014 15.9375 11.25 15.9375H15.3125L15.3125 4.0625H11.25C11.0014 4.0625 10.7629 3.96373 10.5871 3.78791C10.4113 3.6121 10.3125 3.37364 10.3125 3.125ZM1.83672 10.6633L4.96172 13.7883C5.13784 13.9644 5.37671 14.0633 5.62578 14.0633C5.87485 14.0633 6.11372 13.9644 6.28984 13.7883C6.46596 13.6122 6.56491 13.3733 6.56491 13.1242C6.56491 12.8751 6.46596 12.6363 6.28984 12.4602L4.76562 10.9375L11.25 10.9375C11.4986 10.9375 11.7371 10.8387 11.9129 10.6629C12.0887 10.4871 12.1875 10.2486 12.1875 10C12.1875 9.75136 12.0887 9.5129 11.9129 9.33709C11.7371 9.16127 11.4986 9.0625 11.25 9.0625L4.76563 9.0625L6.29063 7.53828C6.46675 7.36216 6.56569 7.12329 6.56569 6.87422C6.56569 6.62515 6.46675 6.38628 6.29063 6.21016C6.1145 6.03404 5.87563 5.93509 5.62656 5.93509C5.37749 5.93509 5.13862 6.03404 4.9625 6.21016L1.8375 9.33516C1.75005 9.4222 1.68064 9.52565 1.63326 9.63958C1.58587 9.75351 1.56144 9.87567 1.56137 9.99906C1.5613 10.1224 1.58558 10.2446 1.63283 10.3586C1.68008 10.4726 1.74937 10.5761 1.83672 10.6633Z" fill="#DF1C41"/>
</svg>
