<svg width="24" height="24" viewBox="0 0 24 24" fill="none" xmlns="http://www.w3.org/2000/svg">
<path d="M3.84007 0H20.1599C22.2808 0 24 1.71925 24 3.84007V20.1599C24 22.2808 22.2808 24 20.1599 24H3.84007C1.71925 24 0 22.2808 0 20.1599V3.83977C0 1.71894 1.71925 0 3.84007 0Z" fill="#2D2020"/>
<path d="M15.3507 5.29412C14.9599 5.45144 14.6186 5.57847 14.2856 5.72508C13.8427 5.92036 13.4105 6.13982 12.9645 6.32714C12.8653 6.36876 12.727 6.32928 12.6089 6.31214C11.8473 6.20164 11.0944 6.23776 10.3687 6.49915C9.46511 6.82452 8.70787 7.36016 8.12387 8.13423C7.58701 8.84556 7.26073 9.63953 7.16982 10.5232C7.063 11.5596 7.24022 12.5424 7.76331 13.457C8.05408 13.9657 8.42475 14.3978 8.84928 14.8025C9.57805 15.4976 10.451 15.8306 11.4249 15.9656C12.1197 16.062 12.798 15.9757 13.4579 15.7675C14.3814 15.4762 15.1542 14.9439 15.7636 14.1925C16.2898 13.5433 16.6249 12.8019 16.7302 11.967C16.7611 11.7224 16.7657 11.4748 16.7923 11.2296C16.8086 11.0809 16.7369 10.9994 16.6087 10.9673C16.3687 10.9067 16.1275 10.825 15.8833 10.8106C15.2494 10.7729 14.6109 10.7237 13.9792 10.7598C13.3288 10.7971 12.6737 10.8853 12.0395 11.0331C11.391 11.1846 10.7549 11.4084 10.1333 11.6514C9.65702 11.8375 9.21198 12.1035 8.75225 12.3324C8.61268 12.4019 8.47464 12.479 8.32711 12.5249C8.26712 12.5436 8.13764 12.506 8.12234 12.4637C8.09571 12.3906 8.10244 12.2678 8.14958 12.2121C8.26161 12.0799 8.3923 11.9535 8.53922 11.8626C9.08312 11.525 9.61846 11.1647 10.1914 10.884C10.8471 10.5633 11.5315 10.2961 12.2186 10.0472C12.7096 9.86939 13.2219 9.74543 13.7309 9.62453C14.7404 9.38456 15.7661 9.28999 16.8034 9.34814C17.3151 9.37691 17.8208 9.44333 18.3084 9.61749C18.5003 9.68605 18.5936 9.80726 18.6282 10.0059C18.7255 10.5599 18.7356 11.1121 18.6897 11.6737C18.6558 12.0876 18.6028 12.4949 18.4954 12.8932C18.2891 13.6587 17.9539 14.3623 17.5006 15.018C16.9904 15.7556 16.3225 16.3341 15.6721 16.9331C15.3449 17.2343 15.0208 17.5391 14.6899 17.8363C14.2002 18.2759 13.6988 18.7025 13.2152 19.1485C12.9113 19.4289 12.574 19.5994 12.1565 19.6321C11.5817 19.6774 11.1424 19.4457 10.7298 19.064C9.74579 18.1537 8.73481 17.2722 7.74096 16.3721C6.91822 15.6271 6.27178 14.7584 5.84021 13.7251C5.58127 13.1047 5.40925 12.4668 5.33365 11.8063C5.26141 11.1751 5.29417 10.5419 5.40956 9.91316C5.56749 9.05155 5.85582 8.24075 6.31984 7.49667C6.81324 6.70484 7.44162 6.04187 8.21845 5.52001C8.94967 5.02844 9.75038 4.71471 10.6077 4.5231C11.1749 4.39639 11.7463 4.35476 12.3211 4.38782C13.1176 4.43373 13.8913 4.59748 14.6195 4.93754C14.8555 5.04619 15.0872 5.16465 15.3507 5.29412Z" fill="#F05E22"/>
</svg>
