<svg width="14" height="16" viewBox="0 0 14 16" fill="none" xmlns="http://www.w3.org/2000/svg">
<path d="M10.0553 0.917166C9.66444 1.07449 9.32316 1.20151 8.99015 1.34812C8.54725 1.5434 8.11507 1.76286 7.66911 1.95018C7.56994 1.99181 7.43159 1.95233 7.31344 1.93518C6.55192 1.82469 5.79896 1.86081 5.07325 2.1222C4.1697 2.44756 3.41246 2.9832 2.82846 3.75728C2.2916 4.46861 1.96532 5.26258 1.87441 6.14623C1.76759 7.18261 1.94481 8.16543 2.4679 9.08C2.75867 9.5887 3.12934 10.0209 3.55387 10.4255C4.28264 11.1206 5.15558 11.4536 6.12953 11.5886C6.82433 11.685 7.5026 11.5987 8.16251 11.3906C9.08595 11.0992 9.8588 10.5669 10.4682 9.81551C10.9944 9.16632 11.3295 8.42499 11.4348 7.59C11.4657 7.34545 11.4703 7.09783 11.4969 6.85266C11.5132 6.7039 11.4415 6.62249 11.3133 6.59035C11.0733 6.52974 10.8321 6.44802 10.5879 6.43364C9.95399 6.39599 9.31551 6.34671 8.68376 6.38283C8.03334 6.42017 7.37833 6.50832 6.74414 6.65616C6.09555 6.80767 5.45952 7.03141 4.83787 7.27444C4.36161 7.46053 3.91657 7.72651 3.45684 7.95546C3.31727 8.02494 3.17923 8.10208 3.0317 8.14799C2.97171 8.16666 2.84223 8.12901 2.82693 8.08677C2.8003 8.01362 2.80703 7.89088 2.85417 7.83517C2.9662 7.70295 3.09689 7.57654 3.24381 7.48563C3.78771 7.14803 4.32305 6.78777 4.89603 6.5071C5.55165 6.18632 6.23604 5.91912 6.92319 5.67027C7.41414 5.49244 7.92652 5.36848 8.43553 5.24758C9.44498 5.00761 10.4707 4.91303 11.508 4.97119C12.0197 4.99996 12.5254 5.06638 13.0129 5.24054C13.2049 5.3091 13.2982 5.43031 13.3328 5.62895C13.4301 6.18296 13.4402 6.73512 13.3943 7.29678C13.3604 7.7106 13.3074 8.11799 13.2 8.5162C12.9937 9.2817 12.6585 9.98538 12.2052 10.641C11.695 11.3787 11.0271 11.9571 10.3767 12.5561C10.0495 12.8573 9.72535 13.1622 9.39448 13.4594C8.90475 13.8989 8.40339 14.3256 7.91979 14.7715C7.61585 15.0519 7.27855 15.2224 6.86106 15.2552C6.28624 15.3005 5.84702 15.0687 5.43442 14.6871C4.45038 13.7768 3.43939 12.8953 2.44555 11.9951C1.62281 11.2501 0.976374 10.3814 0.544801 9.34813C0.285858 8.7277 0.113841 8.08983 0.0382393 7.42931C-0.0339955 6.79818 -0.00124465 6.1649 0.114147 5.53621C0.272084 4.6746 0.560411 3.86379 1.02443 3.11971C1.51783 2.32789 2.14621 1.66492 2.92304 1.14305C3.65426 0.651489 4.45497 0.337757 5.3123 0.146152C5.87946 0.0194348 6.45091 -0.0221933 7.02573 0.0108633C7.82215 0.0567752 8.59592 0.220528 9.32408 0.560583C9.56007 0.669241 9.79177 0.787694 10.0553 0.917166Z" fill="#F05E22"/>
</svg>
