<svg width="416" height="462" viewBox="0 0 416 462" fill="none" xmlns="http://www.w3.org/2000/svg">
<path d="M415.921 449.6L415.921 12.2578C415.921 5.6304 410.548 0.257812 403.921 0.257812L12.6151 0.257795C5.9877 0.257795 0.615112 5.63038 0.615112 12.2578L0.615093 449.6C0.615092 456.228 5.98768 461.6 12.6151 461.6L403.921 461.6C410.548 461.6 415.921 456.228 415.921 449.6Z" fill="#E5E5E5"/>
<path d="M117.282 315.643C116.73 307.106 107.678 301.872 100.004 305.653L50.5426 330.02C46.376 332.073 43.7683 336.346 43.8477 340.99L45.003 408.525C45.1201 415.368 50.9275 420.727 57.7578 420.296L111.781 416.883C118.402 416.464 123.427 410.753 123 404.133L117.282 315.643Z" fill="#DFDFDF"/>
<path d="M362.07 190.731C361.201 185.426 356.911 181.347 351.57 180.746L256.359 170.036C250.49 169.376 245.012 173.085 243.447 178.781L239.47 193.249C239.064 194.727 238.945 196.269 239.119 197.792L243.49 236.036C244.223 242.447 249.894 247.13 256.327 246.639L356.768 238.961C363.782 238.425 368.833 231.997 367.695 225.055L362.07 190.731Z" fill="#DFDFDF"/>
<path d="M137.639 101.659C131.318 101.259 126.396 96.016 126.396 89.6825L126.396 51.457C126.396 44.8296 131.769 39.457 138.396 39.457L199.52 39.457C206.202 39.457 211.597 44.9152 211.519 51.5968L211.029 93.6549C210.949 100.524 205.129 105.925 198.272 105.491L137.639 101.659Z" fill="#F4F7F2"/>
<path d="M124.228 366.527C123.981 359.733 129.367 354.68 136.115 355.503C154.441 357.739 188.22 362.037 203.284 363.959C207.924 364.551 211.778 367.771 213.152 372.242C216.881 384.376 223.754 407.361 222.345 407.484C220.867 407.613 164.327 412.569 138.575 414.826C131.733 415.426 125.817 410.169 125.567 403.306L124.228 366.527Z" fill="#F4F7F2"/>
<path d="M344.493 52.1153C342.12 48.6497 338.267 47.3323 334.376 48.9138C322.157 53.8802 295.272 65.3982 280.712 71.6589C275.097 74.073 272.227 80.3148 274.011 86.16L278.624 101.274C280.165 106.322 284.823 109.771 290.101 109.771L347.444 109.771C353.947 109.771 359.266 104.591 359.44 98.0905L359.956 78.7357C360.023 76.2073 359.29 73.7222 357.861 71.6354L344.493 52.1153Z" fill="#DFDFDF"/>
<path d="M199.362 241.34L199.362 218.51C199.362 211.882 193.99 206.51 187.362 206.51L185.92 206.51C179.293 206.51 173.92 211.882 173.92 218.51L173.92 241.34C173.92 247.968 179.293 253.34 185.92 253.34L187.362 253.34C193.99 253.34 199.362 247.968 199.362 241.34Z" fill="#DFDFDF"/>
<path d="M153.877 254.573C160.347 254.01 165.195 248.402 164.816 241.919L163.371 217.18C163.013 211.049 158.083 206.178 151.948 205.893L124.953 204.64C117.678 204.302 111.782 210.469 112.447 217.721L115.033 245.964C115.636 252.543 121.442 257.397 128.024 256.824L153.877 254.573Z" fill="#DFDFDF"/>
<path d="M262.222 452.769C261.612 447.161 265.807 442.179 271.438 441.826L353.032 436.722C359.941 436.29 365.781 441.777 365.781 448.699L365.781 449.487C365.781 456.108 360.418 461.479 353.796 461.487L272.068 461.589C267.015 461.596 262.769 457.792 262.222 452.769Z" fill="#DFDFDF"/>
<path d="M382.917 348.861C382.917 342.927 377.851 338.257 371.936 338.739L264.703 347.485C257.996 348.032 253.05 353.986 253.742 360.68L257.045 392.587C257.719 399.106 263.5 403.878 270.028 403.306L361.425 395.296C366.307 394.868 370.439 391.514 371.861 386.824L382.48 351.808C382.77 350.853 382.917 349.859 382.917 348.861Z" fill="#DFDFDF"/>
<path d="M369.687 82.9986C363.872 81.9762 359.665 76.8752 359.767 70.9716L360.936 3.64231C360.965 1.94419 362.362 0.589472 364.061 0.611964C365.769 0.634588 367.133 2.04135 367.103 3.74938L366.012 66.6035C365.91 72.5072 370.117 77.6081 375.932 78.6306L413.079 85.1617C414.6 85.4292 415.585 86.9195 415.234 88.4239C414.91 89.8156 413.554 90.7111 412.147 90.4637L369.687 82.9986Z" fill="white"/>
<path d="M262.098 49.7433C260.262 43.7304 263.379 37.3202 269.241 35.0498L359.171 0.2222C359.497 0.0958926 359.866 0.236225 360.025 0.547371C360.211 0.908275 360.043 1.35017 359.664 1.49667L271.068 35.8078C265.206 38.0782 262.089 44.4883 263.925 50.5012L281.724 108.815C281.854 109.239 281.597 109.683 281.165 109.782C280.775 109.871 280.382 109.644 280.265 109.261L262.098 49.7433Z" fill="white"/>
<path d="M212.423 104.746L212.423 2.16891C212.423 1.31731 211.732 0.626953 210.881 0.626953C210.029 0.626953 209.339 1.31731 209.339 2.16891L209.339 104.746C209.339 105.597 210.029 106.288 210.881 106.288C211.732 106.288 212.423 105.597 212.423 104.746Z" fill="white"/>
<path d="M127.065 40.1252L259.085 40.1252C259.455 40.1252 259.755 39.8255 259.755 39.4557C259.755 39.0859 259.455 38.7861 259.085 38.7861L127.065 38.7861C126.695 38.7861 126.396 39.0859 126.396 39.4557C126.396 39.8254 126.695 40.1252 127.065 40.1252Z" fill="white"/>
<path d="M127.077 100.546L127.077 1.40574C127.077 0.979944 126.732 0.634766 126.306 0.634766C125.88 0.634766 125.535 0.979947 125.535 1.40575L125.535 100.546C125.535 100.972 125.88 101.317 126.306 101.317C126.732 101.317 127.077 100.972 127.077 100.546Z" fill="white"/>
<path d="M20.19 96.9988C12.6855 96.5302 7.45575 89.3545 9.30743 82.067L29.3997 2.99123C29.7987 1.421 31.3522 0.4336 32.9433 0.73889C34.6735 1.07088 35.7671 2.79132 35.3332 4.49887L16.8678 77.1687C15.016 84.4562 20.2457 91.6319 27.7502 92.1006L260.236 106.621L362.954 108.936L412.776 112.346C414.276 112.448 415.398 113.764 415.262 115.262C415.131 116.713 413.864 117.793 412.41 117.694L362.551 114.282L259.934 111.969L20.19 96.9988Z" fill="white"/>
<path d="M360.954 113.469C357.932 112.24 356.101 109.145 356.479 105.904L359.296 81.7404C359.489 80.0851 360.964 78.8838 362.624 79.0297C364.353 79.1817 365.614 80.7305 365.413 82.4536L363.091 102.367C362.693 105.784 364.623 109.047 367.81 110.343C371.414 111.808 373.345 115.743 372.299 119.49L362.801 153.521C362.366 155.078 362.251 156.706 362.461 158.309L387.166 346.569C387.386 348.245 387.249 349.949 386.765 351.569L367.924 414.548C367.552 415.793 367.384 417.09 367.428 418.388L368.76 458.288C368.817 460 367.468 461.431 365.756 461.473C364.063 461.516 362.654 460.186 362.597 458.494L361.238 417.781C361.195 416.483 361.362 415.187 361.735 413.942L380.506 351.187C380.991 349.568 381.127 347.864 380.907 346.187L356.209 157.971C355.998 156.369 356.114 154.74 356.548 153.184L365.211 122.145C366.203 118.591 364.372 114.859 360.954 113.469Z" fill="white"/>
<path d="M121.753 336.352C120.242 336.181 119.176 334.79 119.401 333.287C119.616 331.858 120.923 330.856 122.358 331.018L251.317 345.649C252.119 345.74 252.928 345.75 253.732 345.678L382.791 334.206L413.244 334.209C414.724 334.209 415.923 335.409 415.922 336.888C415.922 338.367 414.723 339.566 413.244 339.566L382.948 339.562L253.647 351.071C252.842 351.142 252.033 351.133 251.23 351.042L121.753 336.352Z" fill="white"/>
<path d="M100.95 101.81C100.829 100.092 102.141 98.6083 103.861 98.5173C105.54 98.4286 106.98 99.7021 107.098 101.379L128.485 406.89C128.8 411.383 131.605 415.322 135.748 417.09L226.949 455.988C228.455 456.631 229.067 458.44 228.261 459.864C227.573 461.08 226.081 461.585 224.795 461.037L124.492 418.255C123.612 417.88 123.017 417.044 122.95 416.089L100.95 101.81Z" fill="white"/>
<path d="M112.55 258.193C112.472 257.443 113.027 256.777 113.779 256.718L369.672 236.632L413.883 235.56C414.618 235.543 415.23 236.121 415.253 236.856C415.277 237.599 414.691 238.22 413.947 238.238L369.852 239.303L113.989 259.392C113.263 259.449 112.625 258.917 112.55 258.193Z" fill="white"/>
<path d="M3.04226 217.204C2.61892 215.703 3.552 214.158 5.07678 213.833L110.85 191.336C111.671 191.161 112.508 191.073 113.347 191.073L227.246 191.073C232.6 191.073 237.306 187.527 238.781 182.38L241.073 174.387C242.667 168.824 248.005 165.192 253.764 165.749L361.737 176.203L413.191 175.196C414.663 175.167 415.882 176.332 415.92 177.804C415.959 179.289 414.781 180.522 413.295 180.551L361.462 181.566L361.259 181.547L258.446 171.592C252.686 171.034 247.349 174.666 245.754 180.229L243.601 187.737C242.126 192.883 237.42 196.43 232.066 196.43L114.09 196.43C113.251 196.43 112.414 196.518 111.593 196.692L6.19894 219.109C4.80902 219.405 3.42816 218.571 3.04226 217.204Z" fill="white"/>
<path d="M211.652 192.98L211.652 107.058C211.652 106.632 211.307 106.287 210.881 106.287C210.456 106.287 210.11 106.632 210.11 107.058L210.11 192.98C210.11 193.406 210.456 193.751 210.881 193.751C211.307 193.751 211.652 193.406 211.652 192.98Z" fill="white"/>
<path d="M247.123 167.099L260.615 110.173C260.712 109.76 260.453 109.366 260.036 109.291C259.619 109.217 259.202 109.49 259.104 109.903L245.613 166.829C245.515 167.241 245.774 167.636 246.191 167.71C246.608 167.785 247.025 167.511 247.123 167.099Z" fill="white"/>
<path d="M160.629 193.762C160.196 193.679 159.923 193.249 160.031 192.822L162.882 181.613C164.196 176.446 168.848 172.829 174.179 172.829L210.211 172.829C210.581 172.829 210.881 173.129 210.881 173.499C210.881 173.868 210.581 174.168 210.211 174.168L175.558 174.168C170.143 174.168 165.418 177.842 164.084 183.09L161.514 193.199C161.414 193.591 161.026 193.838 160.629 193.762Z" fill="white"/>
<path d="M3.32922 163.918C2.79521 162.429 3.64467 160.802 5.17105 160.389L36.6347 151.881C41.8677 150.465 45.5021 145.718 45.5021 140.297L45.5021 99.1249C45.5021 97.4217 46.8828 96.041 48.586 96.041C50.2892 96.041 51.6699 97.4217 51.6699 99.1249L51.6699 144.238C51.6699 149.659 48.0357 154.407 42.8028 155.822L6.58487 165.617C5.22263 165.986 3.80582 165.246 3.32922 163.918Z" fill="white"/>
<path d="M43.0703 340.602C42.9909 335.958 45.5987 331.685 49.7652 329.632L115.194 297.397C115.507 297.243 115.886 297.346 116.077 297.638C116.304 297.985 116.176 298.452 115.804 298.635L51.3195 330.406C47.153 332.459 44.5453 336.732 44.6247 341.376L46.6632 460.532C46.6705 460.959 46.3293 461.31 45.9023 461.316C45.4777 461.321 45.1286 460.983 45.1213 460.558L43.0703 340.602Z" fill="white"/>
<path d="M2.80847 395.743L43.0482 395.743C43.418 395.743 43.7178 395.444 43.7178 395.074C43.7178 394.704 43.418 394.404 43.0482 394.404L2.80847 394.404C2.43869 394.404 2.13892 394.704 2.13892 395.074C2.13892 395.444 2.43869 395.743 2.80847 395.743Z" fill="white"/>
<path d="M45.2192 421.101C45.1881 420.726 45.4706 420.399 45.8456 420.376L123.719 415.457L415.196 389.912C415.557 389.881 415.878 390.142 415.92 390.502C415.964 390.877 415.689 391.214 415.313 391.247L123.852 416.791L45.9302 421.715C45.5655 421.738 45.2494 421.465 45.2192 421.101Z" fill="white"/>
<path d="M263.877 460.804L239.544 194.479C239.505 194.055 239.13 193.736 238.705 193.765C238.281 193.794 237.968 194.161 238.007 194.585L262.34 460.91C262.378 461.333 262.754 461.653 263.178 461.624C263.603 461.595 263.916 461.227 263.877 460.804Z" fill="white"/>
<path d="M262.604 445.131L361.955 437.378C362.693 437.321 363.23 436.677 363.154 435.94C363.077 435.204 362.417 434.653 361.679 434.711L262.328 442.464C261.59 442.521 261.053 443.165 261.13 443.902C261.206 444.638 261.866 445.189 262.604 445.131Z" fill="white"/>
<path d="M305.698 439.54L294.935 401.767C294.82 401.361 294.391 401.103 293.977 401.192C293.564 401.281 293.323 401.682 293.439 402.089L304.201 439.862C304.317 440.268 304.746 440.526 305.16 440.437C305.573 440.348 305.814 439.947 305.698 439.54Z" fill="white"/>
<path d="M300.924 423.734C300.848 423.358 301.102 422.994 301.481 422.935L337.584 417.407C342.645 416.632 346.571 412.585 347.192 407.503L348.446 397.244C348.497 396.831 348.866 396.533 349.28 396.571C349.712 396.611 350.026 397 349.973 397.43L348.618 408.511C347.987 413.672 343.999 417.783 338.86 418.57L301.685 424.264C301.331 424.319 300.996 424.085 300.924 423.734Z" fill="white"/>
<path d="M251.487 299.598L373.746 290.497C374.484 290.442 375.024 289.8 374.951 289.064C374.878 288.327 374.221 287.774 373.482 287.829L251.224 296.93C250.485 296.985 249.946 297.627 250.018 298.364C250.091 299.1 250.749 299.653 251.487 299.598Z" fill="white"/>
<path d="M306.51 341.703L294.866 295.725C294.762 295.314 294.341 295.046 293.925 295.125C293.509 295.205 293.256 295.602 293.36 296.012L305.004 341.99C305.107 342.401 305.529 342.669 305.945 342.59C306.361 342.51 306.613 342.113 306.51 341.703Z" fill="white"/>
<path d="M42.5837 331.916L1.72953 327.341C0.992231 327.258 0.30619 327.786 0.197216 328.52C0.0882412 329.254 0.597601 329.916 1.3349 329.998L42.1891 334.574C42.9264 334.656 43.6125 334.128 43.7214 333.395C43.8304 332.661 43.321 331.999 42.5837 331.916Z" fill="white"/>
<path d="M207.373 123.79C207.865 117.096 202.772 111.301 196.071 110.928L125.942 107.032C118.797 106.635 112.894 112.54 113.295 119.685L116.567 178.042C116.923 184.399 122.182 189.371 128.548 189.371L145.425 189.371C150.913 189.371 155.702 185.647 157.055 180.328L157.989 176.653C159.342 171.334 164.131 167.611 169.619 167.611L193.001 167.611C199.287 167.611 204.508 162.76 204.969 156.49L207.373 123.79Z" fill="#E5E5E5"/>
<path d="M267 281C267 269.686 267 264.029 270.515 260.515C274.029 257 279.686 257 291 257H342C353.314 257 358.971 257 362.485 260.515C366 264.029 366 269.686 366 281C366 292.314 366 297.971 362.485 301.485C358.971 305 353.314 305 342 305H291C279.686 305 274.029 305 270.515 301.485C267 297.971 267 292.314 267 281Z" fill="white"/>
<path d="M295.825 286.984L288.017 287V285.8L291.745 282.584C293.617 280.968 294.145 280.184 294.145 278.952C294.145 277.496 293.313 276.632 291.921 276.632C290.497 276.632 289.569 277.672 289.537 279.32H287.969C288.017 276.84 289.585 275.224 291.937 275.224C294.257 275.224 295.745 276.632 295.745 278.856C295.745 280.504 294.929 281.672 292.881 283.448L290.481 285.528H295.825V286.984ZM297.268 281.224C297.268 277.64 299.124 275.208 302.036 275.208C304.932 275.208 306.788 277.64 306.788 281.224C306.788 284.824 305.012 287.208 302.036 287.208C299.044 287.208 297.268 284.824 297.268 281.224ZM298.82 281.224C298.82 284.072 300.004 285.8 302.036 285.8C304.068 285.8 305.236 284.072 305.236 281.224C305.236 278.344 304.068 276.616 302.036 276.616C300.004 276.616 298.82 278.344 298.82 281.224ZM314.545 287H313.041V279.176H314.385L314.529 280.2C314.929 279.464 315.761 278.952 316.865 278.952C318.081 278.952 318.945 279.56 319.345 280.536C319.713 279.56 320.657 278.952 321.873 278.952C323.665 278.952 324.753 280.072 324.753 281.88V287H323.281V282.248C323.281 281.016 322.593 280.312 321.537 280.312C320.401 280.312 319.649 281.112 319.649 282.36V287H318.161V282.232C318.161 281 317.489 280.328 316.433 280.328C315.297 280.328 314.545 281.112 314.545 282.36V287ZM327.574 277.32C327.03 277.32 326.582 276.872 326.582 276.328C326.582 275.768 327.03 275.336 327.574 275.336C328.118 275.336 328.566 275.768 328.566 276.328C328.566 276.872 328.118 277.32 327.574 277.32ZM326.838 287V279.176H328.342V287H326.838ZM332.03 287H330.526V279.176H331.886L332.046 280.376C332.542 279.48 333.534 278.952 334.638 278.952C336.702 278.952 337.646 280.216 337.646 282.216V287H336.142V282.552C336.142 280.968 335.406 280.328 334.254 280.328C332.846 280.328 332.03 281.336 332.03 282.856V287ZM338.995 284.728H340.435C340.435 285.528 341.043 286.008 342.035 286.008C343.091 286.008 343.699 285.576 343.699 284.856C343.699 284.328 343.443 284.008 342.627 283.8L341.251 283.48C339.859 283.144 339.203 282.456 339.203 281.304C339.203 279.864 340.419 278.952 342.147 278.952C343.859 278.952 344.979 279.912 345.011 281.4H343.571C343.539 280.616 343.011 280.12 342.099 280.12C341.155 280.12 340.627 280.536 340.627 281.256C340.627 281.784 341.011 282.136 341.779 282.328L343.155 282.664C344.483 282.984 345.139 283.592 345.139 284.76C345.139 286.248 343.859 287.192 342.003 287.192C340.163 287.192 338.995 286.216 338.995 284.728Z" fill="#0A0D14"/>
<path d="M308.5 305H324.5L317.914 311.586C317.133 312.367 315.867 312.367 315.086 311.586L308.5 305Z" fill="white"/>
<path d="M165.616 169L161.107 184.683H111L122.525 335.317L252 348.5L306.5 344" stroke="#F25C05" stroke-width="4" stroke-linecap="round" stroke-linejoin="round"/>
<rect x="304" y="325" width="32" height="32" rx="16" fill="#F25C05"/>
<rect x="300" y="321" width="40" height="40" rx="20" stroke="#F25C05" stroke-opacity="0.24" stroke-width="8"/>
<path d="M313.625 343.75C315.073 343.75 316.25 344.927 316.25 346.375C316.25 347.822 315.073 349 313.625 349C312.178 349 311 347.822 311 346.375C311 344.927 312.178 343.75 313.625 343.75Z" fill="white"/>
<path d="M311.75 342.25C311.335 342.25 311 341.914 311 341.5C311 341.086 311.335 340.75 311.75 340.75H313.625C313.826 340.75 314.025 340.763 314.223 340.786L315.48 337.553C315.263 337.675 315.016 337.75 314.749 337.75C314.335 337.75 313.999 337.414 313.999 337V335.5C313.999 335.086 314.335 334.75 314.749 334.75C315.419 334.75 315.979 335.192 316.172 335.798C316.651 334.704 317.71 334 318.913 334H319.249C319.664 334 319.999 334.336 319.999 334.75C319.999 335.164 319.664 335.5 319.249 335.5H318.913C318.3 335.5 317.738 335.885 317.515 336.456L315.68 341.175C316.379 341.474 317.017 341.922 317.543 342.506L318.773 343.966C319.058 344.305 319.478 344.5 319.92 344.5H320.092L321.738 340.385C322.193 339.246 323.296 338.5 324.523 338.5H326.75C327.993 338.5 329 339.507 329 340.75V343.75C329 344.747 328.347 345.583 327.448 345.878C327.479 346.041 327.5 346.206 327.5 346.374C327.5 347.822 326.323 348.999 324.875 348.999C323.428 348.999 322.25 347.822 322.25 346.374C322.25 346.248 322.262 346.123 322.28 346H319.919C319.035 346 318.197 345.61 317.627 344.933L316.413 343.491C315.703 342.702 314.687 342.25 313.626 342.25H311.75Z" fill="white"/>
<path fill-rule="evenodd" clip-rule="evenodd" d="M166 116C154.816 116 145.75 125.066 145.75 136.25C145.75 143.683 148.579 150.309 151.955 155.583C155.334 160.862 159.345 164.915 161.919 167.247C164.258 169.367 167.742 169.367 170.081 167.247C172.655 164.915 176.666 160.862 180.045 155.583C183.421 150.309 186.25 143.683 186.25 136.25C186.25 125.066 177.184 116 166 116ZM172.75 136.25C172.75 139.978 169.728 143 166 143C162.272 143 159.25 139.978 159.25 136.25C159.25 132.522 162.272 129.5 166 129.5C169.728 129.5 172.75 132.522 172.75 136.25Z" fill="#F25C05"/>
</svg>
