<svg width="40" height="40" viewBox="0 0 40 40" fill="none" xmlns="http://www.w3.org/2000/svg">
<path d="M10.25 33.5C9.36358 33.5 8.48583 33.3254 7.66689 32.9862C6.84794 32.647 6.10382 32.1498 5.47703 31.523C4.85023 30.8962 4.35303 30.1521 4.01381 29.3331C3.67459 28.5142 3.5 27.6364 3.5 26.75C3.5 25.8636 3.67459 24.9858 4.01381 24.1669C4.35303 23.3479 4.85023 22.6038 5.47703 21.977C6.10382 21.3502 6.84794 20.853 7.66689 20.5138C8.48583 20.1746 9.36358 20 10.25 20C12.0402 20 13.7571 20.7112 15.023 21.977C16.2888 23.2429 17 24.9598 17 26.75C17 28.5402 16.2888 30.2571 15.023 31.523C13.7571 32.7888 12.0402 33.5 10.25 33.5V33.5ZM10.25 29C10.8467 29 11.419 28.7629 11.841 28.341C12.2629 27.919 12.5 27.3467 12.5 26.75C12.5 26.1533 12.2629 25.581 11.841 25.159C11.419 24.7371 10.8467 24.5 10.25 24.5C9.65326 24.5 9.08097 24.7371 8.65901 25.159C8.23705 25.581 8 26.1533 8 26.75C8 27.3467 8.23705 27.919 8.65901 28.341C9.08097 28.7629 9.65326 29 10.25 29V29ZM29.75 33.5C28.8636 33.5 27.9858 33.3254 27.1669 32.9862C26.3479 32.647 25.6038 32.1498 24.977 31.523C24.3502 30.8962 23.853 30.1521 23.5138 29.3331C23.1746 28.5142 23 27.6364 23 26.75C23 25.8636 23.1746 24.9858 23.5138 24.1669C23.853 23.3479 24.3502 22.6038 24.977 21.977C25.6038 21.3502 26.3479 20.853 27.1669 20.5138C27.9858 20.1746 28.8636 20 29.75 20C31.5402 20 33.2571 20.7112 34.523 21.977C35.7888 23.2429 36.5 24.9598 36.5 26.75C36.5 28.5402 35.7888 30.2571 34.523 31.523C33.2571 32.7888 31.5402 33.5 29.75 33.5V33.5ZM29.75 29C30.3467 29 30.919 28.7629 31.341 28.341C31.7629 27.919 32 27.3467 32 26.75C32 26.1533 31.7629 25.581 31.341 25.159C30.919 24.7371 30.3467 24.5 29.75 24.5C29.1533 24.5 28.581 24.7371 28.159 25.159C27.7371 25.581 27.5 26.1533 27.5 26.75C27.5 27.3467 27.7371 27.919 28.159 28.341C28.581 28.7629 29.1533 29 29.75 29ZM19.2965 16.6955L21.5 20V29H18.5V21.5L14.4215 18.101C14.0586 17.8516 13.755 17.5253 13.5323 17.1454C13.3097 16.7654 13.1734 16.3411 13.1331 15.9026C13.0929 15.4641 13.1497 15.0221 13.2995 14.6079C13.4494 14.1938 13.6885 13.8178 14 13.5065L18.242 9.2645C18.5206 8.9858 18.8514 8.76471 19.2154 8.61387C19.5795 8.46303 19.9697 8.38539 20.3638 8.38539C20.7578 8.38539 21.148 8.46303 21.5121 8.61387C21.8761 8.76471 22.2069 8.9858 22.4855 9.2645L24.6065 11.3855C26.195 12.9797 28.2557 14.0187 30.482 14.348L30.467 17.3705C27.4462 17.0227 24.6326 15.6611 22.4855 13.508L19.295 16.6955H19.2965ZM26 9.5C25.2044 9.5 24.4413 9.18393 23.8787 8.62132C23.3161 8.05871 23 7.29565 23 6.5C23 5.70435 23.3161 4.94129 23.8787 4.37868C24.4413 3.81607 25.2044 3.5 26 3.5C26.7956 3.5 27.5587 3.81607 28.1213 4.37868C28.6839 4.94129 29 5.70435 29 6.5C29 7.29565 28.6839 8.05871 28.1213 8.62132C27.5587 9.18393 26.7956 9.5 26 9.5V9.5Z" fill="#F25C05"/>
</svg>
